<svg width="692" height="766" viewBox="0 0 692 766" fill="none" xmlns="http://www.w3.org/2000/svg">
<g clip-path="url(#clip0_35_257)">
<path d="M500.4 346.72C506.69 346.59 513.01 347 519.31 345.81C531.82 343.46 539.55 332.7 538.39 318.88C537.32 306.18 528.93 298.1 515.81 298.48C496.12 299.06 476.98 296.42 458.15 290.82C446.05 287.22 433.97 287.05 421.76 290.84C413.82 293.3 405.63 294.95 397.54 296.92C396.48 297.18 395.08 297.76 394.66 296.09C394.37 294.93 395.43 294.34 396.31 293.88C398.23 292.88 400.11 291.77 402.13 291.01C406.45 289.39 405.88 287.15 403.15 284.52C400.51 281.98 398.05 279.2 395.16 276.99C357.49 248.17 314.63 239.34 268.32 244.92C243.82 247.87 221.21 256.78 200.16 269.46C173.69 285.41 151.48 305.82 138.17 334.21C119.82 373.37 119.54 414.11 129.75 455.34C137.56 486.9 153.41 513.99 175.27 538.05C201.5 566.9 233.11 585.75 271.33 593.47C278.21 594.86 285.18 595.52 292.21 594.92C294.37 594.74 296.85 594.66 297.8 592.35C298.79 589.95 296.78 588.26 295.35 586.76C291.33 582.54 287.26 578.34 282.99 574.38C256.21 549.52 233.6 521.25 213.66 490.7C199.38 468.83 192.31 445.29 193.34 418.92C194.41 391.79 204.99 369.68 224.82 351.67C252.33 326.68 284.8 317.49 321.37 321.93C332.84 323.32 343.96 326.21 354.1 332.04C358.52 334.58 358.67 336 355.13 339.59C354.31 340.42 353.44 341.2 352.55 341.95C332.76 358.5 318.51 379.01 310.43 403.42C303.3 424.96 300.75 447.22 303.02 469.96C305.78 497.57 315.32 522.01 335.82 541.41C357.21 561.65 382.31 572.66 412.14 571.68C436.58 570.88 457.76 561.26 476.91 546.9C501 528.84 520.3 506.13 538.12 482.08C546.3 471.04 553.4 459.39 557.42 446.15C561.75 431.91 553.92 417.96 539.32 415.36C523.43 412.53 509.8 418.14 498.59 429.48C492.23 435.91 487.11 443.3 482.83 451.29C478.74 458.93 474.7 466.66 468.69 473.02C450.2 492.56 427.42 495.81 402.47 489.84C384.82 485.62 372.94 474.21 367.43 457.43C360.63 436.7 364.1 417.29 379.14 400.64C386.87 392.09 395.94 384.94 403.96 376.72C412.45 368.02 419.4 358.3 419.58 345.33C419.63 341.8 421.54 340.06 425.09 339.45C438.23 337.19 451.25 336.85 464.1 341.14C475.87 345.07 487.83 347.85 500.4 346.73V346.72ZM352.02 221.6C354.91 222.04 357.09 222.67 359.14 223.87C367.77 228.92 376.35 234.03 384.51 239.83C388.917 242.963 393.337 242.89 397.77 239.61C398.97 238.72 400.12 237.76 401.3 236.82C416.56 224.63 428.95 209.83 439.54 193.57C445.21 184.87 452.26 177.82 460.64 171.9C476.76 160.52 491.5 147.57 504.94 133.13C508.69 129.1 512.53 125.05 514.72 119.94C521.57 103.98 510.34 87.6501 494.5 89.6401C488.35 90.4101 483.03 92.8901 477.99 96.2601C467.66 103.16 458.69 111.59 450.61 120.96C442.71 130.12 434 138.32 423.18 143.91C411.94 149.71 403.06 158.16 395.83 168.29C382.57 186.89 367.73 204.15 352.03 221.6H352.02ZM123 169.79C123 191.09 135.06 236.98 146.01 257.6C147.04 259.55 147.66 259.68 149.11 258C159.63 245.81 171.8 235.56 185.68 227.36C187.53 226.27 188.42 225.04 186.7 223C177.28 211.82 173.31 197.87 167.22 184.96C163.4 176.87 163.17 169.54 165.68 161.07C170.05 146.35 172.29 131.2 170.34 115.73C169.32 107.65 163.09 100.14 156.26 98.5901C148.69 96.8801 141.19 100.28 136.39 107.94C134.64 110.74 133.18 113.81 132.14 116.93C126.42 134.09 123 151.65 123 169.79Z" fill="black"/>
<path d="M265.96 81.8101C266.17 74.6001 266.37 67.3101 268.16 60.2901C269.95 53.2701 273.38 47.5201 277.32 41.8001C284.36 31.5901 293.24 22.5601 303.3 15.3101C309.06 11.1601 315.21 7.57011 321.64 4.57011H319.12C326.04 7.91011 330.56 13.7101 333.87 20.4901C336.27 25.4001 339.54 32.0901 338.12 37.5001C337.85 38.5401 337.46 39.3501 336.65 40.0601C335.74 40.8601 334.09 41.5201 332.91 42.2201C330.01 43.9401 327.26 45.9501 324.7 48.1501C319.64 52.4801 315.31 57.7401 311.94 63.4801C308.57 69.2201 306.09 75.5601 304.81 82.1001C304.48 83.7801 304.23 85.4801 304.04 87.1801C303.87 88.6901 303.92 90.2701 303.63 91.7701C303.09 94.6401 301.62 97.1801 299.52 99.1901C295.26 103.26 289.07 104.21 283.99 101.09C278.91 97.9701 276.15 92.1901 277.72 86.5901C279.29 80.9901 284.4 76.7201 290.06 76.5201C295.72 76.3201 301.2 80.3801 303.06 85.7001C303.53 87.0401 303.78 88.3901 303.79 89.8101C303.82 93.0301 308.82 93.0301 308.79 89.8101C308.68 79.0801 298.5 70.1001 287.84 71.7601C277.18 73.4201 269.79 84.6601 273.09 94.8201C274.65 99.6101 278.17 103.83 282.69 106.09C287.58 108.54 293.02 108.55 297.96 106.26C302.64 104.09 306.37 99.8301 307.98 94.9401C308.77 92.5401 308.74 90.0301 309 87.5501C309.26 85.0701 309.75 82.5801 310.38 80.1601C312.95 70.2701 318.29 61.1801 325.62 54.0701C329.27 50.5201 333.38 47.5701 337.88 45.1801C342.38 42.7901 343.79 38.0101 343.3 33.1901C342.77 27.9601 340.62 23.0401 338.37 18.3501C335.8 13.0101 332.43 7.87011 327.76 4.14011C326.56 3.18011 325.31 2.28011 323.98 1.50011C323.35 1.13011 322.7 0.770112 322.04 0.450112C320.83 -0.129888 320.01 -0.139888 318.75 0.430112C316.26 1.57011 313.82 2.85011 311.43 4.19011C306.51 6.95011 301.83 10.1001 297.37 13.5501C288.5 20.4101 280.69 28.5301 274.16 37.6401C270.61 42.6001 267.34 47.8301 265.09 53.5201C262.73 59.5101 261.82 65.9601 261.37 72.3501C261.15 75.5001 261.06 78.6601 260.96 81.8201C260.86 84.9801 265.87 85.0401 265.96 81.8201V81.8101Z" fill="black"/>
<path d="M262.93 107.28C263.01 107.76 263.09 108.24 263.16 108.72C263.2 108.98 263.24 109.24 263.27 109.5C263.21 109.05 263.27 109.55 263.3 109.72C263.41 110.65 263.51 111.58 263.58 112.51C263.73 114.41 263.79 116.31 263.76 118.22C263.74 119.53 264.92 120.78 266.26 120.72C267.6 120.66 268.74 119.62 268.76 118.22C268.81 114.11 268.45 110.01 267.75 105.95C267.53 104.66 265.87 103.82 264.67 104.2C263.28 104.65 262.69 105.89 262.92 107.28H262.93Z" fill="black"/>
<path d="M260.9 85.5199L261.88 96.4699C262 97.7699 262.95 99.0299 264.38 98.9699C265.81 98.9099 266.84 97.8699 266.88 96.4699C266.9 95.7799 266.92 95.0799 266.94 94.3899C266.98 93.0799 265.76 91.8299 264.44 91.8899C263.05 91.9499 261.98 92.9899 261.94 94.3899C261.92 95.0799 261.9 95.7799 261.88 96.4699H266.88L265.9 85.5199C265.78 84.2199 264.83 82.9599 263.4 83.0199C262.15 83.0799 260.78 84.1299 260.9 85.5199Z" fill="black"/>
<path d="M262.22 74.04C256.8 90.23 253.45 107.03 251.64 123.99C249.83 140.95 249.61 158.09 250.45 175.13C250.68 179.87 251 184.6 251.38 189.33C251.58 191.73 251.79 194.13 252.02 196.52C252.14 197.76 252.26 198.99 252.39 200.22C252.45 200.76 252.5 201.3 252.56 201.84C252.59 202.15 252.63 202.46 252.66 202.76C252.68 202.91 252.69 203.07 252.71 203.22C252.74 203.51 252.74 203.53 252.71 203.28C252.2 204.53 253.26 206.03 254.46 206.36C255.89 206.75 257.03 205.87 257.54 204.61C257.89 203.74 257.66 202.74 257.56 201.84C257.44 200.68 257.32 199.53 257.2 198.37C256.99 196.28 256.8 194.2 256.61 192.11C256.24 187.85 255.92 183.59 255.67 179.32C255.17 170.78 254.92 162.23 254.99 153.68C255.13 136.73 256.52 119.77 259.76 103.13C261.59 93.73 264 84.45 267.04 75.37C268.06 72.31 263.24 71 262.22 74.04Z" fill="black"/>
<path d="M254.07 205.61C253.92 208.07 256.5 209.68 258.74 209.14C260.67 208.68 261.68 206.71 263.58 206.15C265.71 205.53 267.87 206.54 269.96 205.52C270.77 205.13 271.34 204.41 272.11 203.98C272.88 203.55 273.95 203.61 274.79 203.54C277.16 203.34 279.54 203.13 281.91 202.93C284.13 202.74 286.43 202.45 288.56 203.3C290.43 204.05 292.1 205.25 293.95 206.05C296.16 207 298.5 207.48 300.91 207.51C304.13 207.56 304.13 202.56 300.91 202.51C298.96 202.48 297.06 202.07 295.3 201.19C293.54 200.31 292.02 199.33 290.27 198.62C286.29 197.01 281.77 197.93 277.63 198.28C275.64 198.45 273.54 198.46 271.59 198.89C270.51 199.13 269.58 199.6 268.72 200.28C268.07 200.79 267.82 201.09 266.96 201.03C265.07 200.9 263.33 200.86 261.52 201.56C260.49 201.96 259.59 202.46 258.72 203.15C258.43 203.38 258.09 203.62 257.84 203.9C257.72 204.01 257.6 204.12 257.48 204.24C258.23 204.16 258.76 204.6 259.07 205.58C259.26 202.37 254.26 202.38 254.07 205.58V205.61Z" fill="black"/>
<path d="M305.63 95.51C297.54 122.55 294.63 151.16 297.15 179.28C297.86 187.25 299 195.19 300.55 203.04C300.81 204.37 302.39 205.12 303.63 204.79C305.01 204.41 305.64 203.04 305.38 201.71C300.04 174.68 299.9 146.6 304.96 119.52C306.39 111.87 308.23 104.3 310.46 96.85C311.38 93.76 306.56 92.44 305.64 95.52L305.63 95.51Z" fill="black"/>
<path d="M309.03 99.9299L309.06 93.3399L305.9 95.7499C305.3 95.5499 305.16 95.0299 305.42 94.4899L309.99 96.4199C310.42 94.1899 310.12 91.9399 308.88 89.9999C308.21 88.9599 306.92 88.4699 305.76 88.9799C304.6 89.4899 304.09 90.6699 304.31 91.9299C304.71 94.2199 305.1 96.5099 305.5 98.7999C305.9 101.09 309.96 101.21 310.32 98.7999C310.72 96.1799 310.69 93.5999 310.07 91.0199C309.8 89.9099 309.35 88.8899 308.98 87.8199C308.87 87.5099 308.77 87.1899 308.71 86.8699C308.74 86.9999 308.71 86.4199 308.72 86.7099C308.71 86.8299 308.72 86.8199 308.75 86.6699C308.8 86.4999 308.8 86.5099 308.75 86.6899C308.62 86.7399 308.53 86.9199 308.37 86.9699L305.29 85.2199C305.71 87.4299 306.14 89.6399 306.56 91.8499C306.94 93.8399 310.3 94.4199 311.13 92.4499C312.86 88.3699 312.7 83.7099 310.21 79.9499C309.47 78.8299 308 78.3399 306.79 79.0499C305.67 79.6999 305.14 81.3399 305.89 82.4699C307.38 84.7199 307.8 87.5899 306.81 89.9199L311.38 90.5199C310.96 88.3099 310.53 86.0999 310.11 83.8899C309.86 82.5999 308.24 81.7599 307.03 82.1399C305.48 82.6299 304.39 83.7799 303.93 85.3299C303.47 86.8799 303.85 88.3499 304.4 89.7599C305.37 92.2299 305.91 94.7999 305.51 97.4599H310.33C309.93 95.1699 309.54 92.8799 309.14 90.5899L304.57 92.5199C304.93 93.0899 305.04 93.3199 305.17 93.9399C305.22 94.1899 305.23 94.7999 305.17 95.0899C304.93 96.3099 305.41 97.5499 306.62 98.0399C307.7 98.4699 309.18 98.1499 309.74 97.0199C310.94 94.5799 309.84 91.7899 307.23 90.9299C305.67 90.4199 304.07 91.7799 304.07 93.3399L304.04 99.9299C304.03 103.15 309.03 103.15 309.04 99.9299H309.03Z" fill="black"/>
<path d="M279.43 94.8999C279.43 94.8999 279.45 94.9799 279.46 95.0199L279.1 92.3599C279.1 92.4099 279.1 92.4599 279.1 92.5199L279.46 89.8599C279.46 89.9199 279.43 89.9799 279.41 90.0299L280.42 87.6399C280.39 87.6999 280.36 87.7599 280.32 87.8099L281.88 85.7899C281.83 85.8499 281.77 85.9099 281.71 85.9599L283.73 84.3999C283.67 84.4499 283.6 84.4899 283.52 84.5199L285.91 83.5099C285.84 83.5399 285.78 83.5599 285.71 83.5699L288.37 83.2099C288.31 83.2099 288.25 83.2099 288.19 83.2099L290.85 83.5699C290.8 83.5699 290.75 83.5499 290.7 83.5299L293.09 84.5399C293.09 84.5399 293.02 84.4999 292.98 84.4799C291.83 83.7499 290.59 83.3499 289.26 83.2899C287.93 82.9899 286.6 83.0499 285.27 83.4699C283.97 83.7799 282.84 84.3799 281.87 85.2599C280.78 85.9699 279.92 86.8999 279.29 88.0699L278.28 90.4599C277.8 92.2299 277.8 93.9999 278.28 95.7799L279.29 98.1699C280.18 99.6699 281.37 100.87 282.88 101.76C282.91 101.78 282.93 101.79 282.96 101.81C283.76 102.19 284.57 102.58 285.42 102.85C285.45 102.85 285.48 102.87 285.51 102.87C286.41 103.02 287.33 103.21 288.25 103.23C288.28 103.23 288.31 103.23 288.34 103.23C288.34 103.23 288.35 103.23 288.36 103.23C288.5 103.21 290.89 102.89 291.02 102.87C291.04 102.87 291.05 102.87 291.07 102.87C291.1 102.87 291.13 102.86 291.16 102.85C291.17 102.85 291.19 102.84 291.2 102.83C291.6 102.67 292.46 102.3 292.41 102.32C292.72 102.19 293.23 101.99 293.63 101.81C293.69 101.78 293.74 101.75 293.79 101.71C293.79 101.71 293.8 101.7 293.81 101.69C293.96 101.58 295.69 100.24 295.84 100.12C295.85 100.12 295.86 100.1 295.88 100.09C295.9 100.07 295.93 100.05 295.95 100.02C295.97 99.9899 295.99 99.9699 296.01 99.9499L296.79 98.9399C297.06 98.5999 297.32 98.2599 297.58 97.9199C297.58 97.9199 297.58 97.9099 297.59 97.8999C297.6 97.8899 297.61 97.8699 297.62 97.8599C297.64 97.8299 297.65 97.8099 297.66 97.7799C297.66 97.7799 297.66 97.7699 297.66 97.7599C297.72 97.6299 298.62 95.4899 298.67 95.3699C298.67 95.3499 298.68 95.3399 298.69 95.3199C298.7 95.2899 298.71 95.2499 298.72 95.2199C298.8 94.7799 298.95 93.5099 298.9 93.8699C298.88 93.9799 299.04 92.9699 299.08 92.5199C299.08 92.4999 299.08 92.4899 299.08 92.4699C299.08 92.4499 299.08 92.4399 299.08 92.4199C299.08 92.4199 299.08 92.4099 299.08 92.3999C299.03 91.9499 298.97 91.4999 298.9 91.0599C298.84 90.6099 298.78 90.1699 298.72 89.7199C298.72 89.6799 298.71 89.6499 298.69 89.6099C298.38 88.3099 297.78 87.1799 296.9 86.2099C296.19 85.1199 295.26 84.2599 294.09 83.6299C292.94 82.8999 291.7 82.4999 290.37 82.4399C289.04 82.1399 287.71 82.1999 286.38 82.6199L283.99 83.6299C282.49 84.5199 281.29 85.7099 280.4 87.2199L279.39 89.6099C278.91 91.3799 278.91 93.1499 279.39 94.9299L279.43 94.8999Z" fill="black"/>
<path d="M295.48 94.5299C300.25 78.4299 305.86 62.5799 312.28 47.0599C313.16 44.9199 312.48 41.2399 311.27 39.3499C310.06 37.4599 308.53 36.1199 306.49 35.2599C302.23 33.4599 296.17 34.8499 294 39.3499C287.29 53.2799 276.95 65.2199 272.31 80.1799C270.8 85.0699 270.4 90.1199 269.75 95.1699L270.11 92.5099C269.83 94.5499 269.43 96.5399 268.65 98.4499L269.66 96.0599L269.48 96.4599L288.11 101.51C288.3 99.4799 288.53 97.4599 288.8 95.4399L288.44 98.0999C290.04 86.2999 292.98 74.7099 297.21 63.5799L297.57 60.9199L297.21 58.2599C296.63 56.1599 295.33 54.3799 293.63 53.0699C290.57 50.7099 285.91 50.1299 282.52 52.2899C277.75 55.3299 275.04 59.7299 273.16 64.9299C271.84 68.5799 271.01 72.4299 270.09 76.1999C268.07 84.4099 266.16 92.6399 264.21 100.87C263.09 105.59 261.97 110.31 260.85 115.03L280.49 117.69C280.67 116.07 280.86 114.46 281.08 112.85L280.72 115.51C282.58 101.79 285.84 88.3299 289.11 74.8899C289.74 72.3199 289.45 69.4899 288.1 67.1799C286.89 65.1099 284.51 63.1299 282.12 62.5799C276.59 61.3199 271.6 64.2499 269.82 69.5599C264.11 86.5699 260.36 104.05 258.12 121.84C257.84 124.1 259.42 127.42 261.05 128.91C262.68 130.4 264.56 131.36 266.79 131.66C269.02 131.96 271.3 131.67 273.17 130.47C275.19 129.17 277.42 126.99 277.77 124.49C279.2 114.11 280.99 103.78 283.16 93.5299C283.72 90.8899 283.54 88.1999 282.15 85.8199C280.94 83.7499 278.56 81.7699 276.17 81.2199C273.61 80.6399 270.74 80.7599 268.46 82.2299C266.32 83.6099 264.45 85.6599 263.86 88.2099C261.24 99.5699 258.62 110.93 256 122.29L275.64 124.95C275.76 124.02 275.88 123.1 276 122.17L275.64 124.83C278.23 105.64 282.78 86.7299 289.24 68.4699C291.08 63.2699 293.08 58.1199 295.22 53.0299L294.21 55.4199L294.39 54.9899C295.12 53.8399 295.52 52.5999 295.58 51.2699C295.88 49.9399 295.82 48.6099 295.4 47.2799C294.76 44.9599 292.97 42.4499 290.8 41.2999C286.09 38.8099 279.84 40.0099 277.12 44.8899C270.88 56.0599 264.84 67.8699 264.88 80.9899C264.89 86.2199 269.47 91.2299 274.88 90.9899C280.29 90.7499 284.82 86.5999 284.88 80.9899C284.92 77.3899 285.13 73.7999 285.59 70.2299L285.23 72.8899C285.9 67.9299 287.07 63.0499 289.02 58.4299L288.01 60.8199C289.46 57.4699 291.3 54.3799 293.52 51.4899L291.96 53.5099C296.12 48.1699 301.06 43.4399 305.74 38.5699C308.21 35.9999 310.68 33.4299 313.15 30.8699C315.45 28.4799 317.65 25.8499 320.26 23.7799L318.24 25.3399C319.06 24.7199 319.92 24.1699 320.86 23.7399L318.47 24.7499C319.02 24.5199 319.57 24.3499 320.16 24.2299L317.5 24.5899C317.95 24.5299 318.38 24.5199 318.84 24.5499L316.18 24.1899C316.52 24.2399 316.82 24.3199 317.15 24.4299L314.76 23.4199C315.22 23.6199 315.6 23.8499 316 24.1499L313.98 22.5899C314.27 22.8599 314.52 23.1299 314.77 23.4299L313.21 21.4099C314.69 23.4699 315.77 25.9799 316.76 28.3099L315.75 25.9199C316.43 27.5799 316.96 29.2699 317.25 31.0499L316.89 28.3899C317.06 29.6599 317.09 30.8899 316.92 32.1599L317.28 29.4999C317.13 30.4299 316.89 31.3299 316.55 32.2099L317.56 29.8199C317.2 30.6699 316.76 31.4599 316.2 32.1999L317.76 30.1799C317.33 30.7099 316.87 31.1799 316.34 31.6099L318.36 30.0499C317.81 30.4599 317.23 30.7899 316.6 31.0599C314.46 31.9699 312.59 34.9099 312 37.0399C311.34 39.4299 311.64 42.6199 313.01 44.7499C314.38 46.8799 316.44 48.7599 318.99 49.3499L321.65 49.7099C323.46 49.7099 325.14 49.2499 326.7 48.3399C329.56 47.1199 331.67 44.7499 333.47 42.3099C334.82 40.4899 335.77 38.2199 336.32 36.0399C337.62 30.8999 337 25.4899 335.03 20.6099C332.92 15.3999 330.32 8.63991 324.85 6.15991C321.32 4.55991 317.41 3.91991 313.65 5.26991C310.4 6.43991 307.97 8.00992 305.35 10.2699C302.08 13.0799 299.23 16.4999 296.24 19.5999C293.08 22.8799 289.92 26.1699 286.76 29.4499C280.64 35.8099 274.39 42.3399 270.81 50.5299C268.73 55.2899 267.14 60.0999 266.28 65.2299C265.42 70.3599 264.92 75.6999 264.86 80.9899H284.86C284.86 79.3699 284.96 77.7699 285.16 76.1599L284.8 78.8199C285.41 74.4299 286.75 70.2299 288.46 66.1499L287.45 68.5399C289.45 63.8699 291.89 59.4199 294.36 54.9799L277.09 44.8899C268.8 64.4899 262.41 84.7399 258.52 105.69C257.34 112.07 256.4 118.5 255.6 124.94C255.32 127.2 256.9 130.52 258.53 132.01C260.16 133.5 262.04 134.46 264.27 134.76C268.98 135.39 274.12 132.47 275.24 127.6C277.86 116.24 280.48 104.88 283.1 93.5199L263.81 88.1999C261.65 98.4499 259.85 108.78 258.42 119.16L278.06 121.82C278.16 121.03 278.26 120.24 278.37 119.46L278.01 122.12C280.19 106.06 283.88 90.2299 289.05 74.8599L269.76 69.5399C265.89 85.4499 262.2 101.36 260.42 117.66C260.17 119.95 261.7 123.21 263.35 124.73C265 126.25 266.86 127.18 269.09 127.48C273.82 128.12 278.91 125.18 280.06 120.32C282.15 111.52 284.24 102.72 286.33 93.9199C287.35 89.6199 288.36 85.3099 289.42 81.0199C290.4 77.0699 291.25 72.9699 292.78 69.1899L291.77 71.5799C292.3 70.3399 292.92 69.1699 293.74 68.0999L292.18 70.1199C292.64 69.5599 293.13 69.0599 293.68 68.5999L291.66 70.1599C291.95 69.9399 292.24 69.7299 292.55 69.5399L277.86 58.2499C272.58 72.1599 269.45 86.6999 268.04 101.5L268.4 104.16C268.71 105.46 269.31 106.59 270.19 107.56C271.47 109.21 273.29 110.67 275.38 111.14C277.14 111.54 278.94 111.54 280.7 111.14C282.82 110.66 285.77 108.6 286.68 106.54C287.87 103.85 288.8 101.37 289.23 98.4699C289.66 95.5699 289.92 92.7399 290.3 89.8799L289.94 92.5399C290.54 88.2899 291.78 84.2099 293.45 80.2599L292.44 82.6499C297.47 70.9099 305.66 60.9099 311.19 49.4299L292.91 41.7199C286.49 57.2399 280.88 73.0799 276.11 89.1899C274.62 94.1999 277.9 100.31 283.09 101.49C288.28 102.67 293.8 99.8799 295.39 94.5099L295.48 94.5299Z" fill="black"/>
<path d="M321.7 22.89C323.87 23.48 326.27 23.86 328.51 23.65C329.98 23.51 331.47 23.36 332.91 22.99C333.64 22.8 334.34 22.51 335.09 22.39L332.43 22.75H332.82C331.93 22.62 331.05 22.5 330.16 22.38C330.41 22.39 330.64 22.45 330.86 22.55L328.47 21.54L328.75 21.71L326.73 20.15C326.91 20.28 327.07 20.43 327.21 20.61L325.65 18.59C325.86 18.89 326.02 19.16 326.17 19.49L325.16 17.1C325.41 17.75 325.56 18.4 325.67 19.09L325.31 16.43C325.4 17.19 325.42 17.93 325.37 18.69L344 13.64C342.03 9.91998 340.29 5.59998 336.45 3.38998C331.91 0.769976 326.38 1.33998 321.54 2.78998L329.25 21.07C330.91 20.29 332.29 18.66 333.25 17.14C334.54 15.1 334.88 12.55 334.57 10.22C334.34 8.53998 334.2 7.45998 333.15 5.87998C332.67 5.14998 332.02 4.33998 331.42 3.71998C330.07 2.32998 328.53 1.73998 326.8 1.06998L324.14 20.71C324.87 20.64 325.57 20.65 326.29 20.75L323.63 20.39C324.35 20.51 325.03 20.7 325.71 20.97L323.32 19.96C324.1 20.3 324.81 20.71 325.5 21.23L323.48 19.67C324.04 20.13 324.54 20.63 325 21.19L323.44 19.17C323.88 19.77 324.24 20.38 324.54 21.07L323.53 18.68C324.3 20.57 324.86 22.62 325.97 24.34C327.08 26.06 328.62 27.3 329.96 28.87L328.4 26.85C328.62 27.16 328.8 27.45 328.97 27.8L327.96 25.41C328.14 25.87 328.26 26.31 328.34 26.79L327.98 24.13C328.04 24.76 328.01 25.35 327.93 25.97L328.29 23.31C328.12 24.22 327.85 25.07 327.49 25.92L328.5 23.53C327.67 25.36 326.52 27.02 325.31 28.61L326.87 26.59C324.86 29.16 322.55 31.45 319.97 33.45L321.99 31.89C320.58 32.95 319.11 33.92 317.58 34.79L332.27 46.08C332.37 45.67 332.49 45.27 332.65 44.88L331.64 47.27C332.43 45.46 333.75 43.99 334.8 42.33C335.66 40.96 336.34 39.42 336.81 37.88C337.6 35.27 337.35 32.97 336.96 30.35C336.46 27.02 333.03 24.21 329.98 23.37C326.48 22.41 322.85 23.46 320.25 25.94C315.04 30.92 309.82 35.9 304.61 40.89C301 44.34 300.87 50.19 303.83 54.02C305.11 55.67 306.93 57.13 309.02 57.6C311.49 58.16 314.6 58.16 316.73 56.59C322.71 52.2 327.79 46.93 331.38 40.39C333.79 35.99 332.78 30.56 328.8 27.49C324.82 24.42 319.22 24.73 315.67 28.27C310.38 33.55 305.86 39.79 302.7 46.57C301.59 48.95 300.84 51.64 301.69 54.28C302.37 56.39 303.51 58.11 305.27 59.47C309.07 62.4 314.98 62.35 318.4 58.69L319.39 57.63C321.18 55.71 322.32 53.22 322.32 50.56C322.32 48.11 321.23 45.18 319.39 43.49C317.55 41.8 314.98 40.44 312.32 40.56C309.66 40.68 307.07 41.53 305.25 43.49L304.26 44.55L319.97 56.67C321.77 52.81 323.98 49.17 326.58 45.8L325.02 47.82C326.51 45.92 328.1 44.12 329.81 42.42L314.1 30.3C313.1 32.11 311.98 33.84 310.72 35.48L312.28 33.46C310.32 35.96 308.08 38.2 305.59 40.16L307.61 38.6C307.28 38.85 306.95 39.1 306.62 39.34L318.74 55.05C323.95 50.07 329.17 45.09 334.38 40.1L317.67 35.69L317.72 36L317.36 33.34C317.39 33.75 317.38 34.13 317.33 34.53L317.69 31.87C317.6 32.36 317.45 32.82 317.26 33.29L318.27 30.9C317.64 32.27 316.7 33.45 315.84 34.68C314.56 36.51 313.49 38.62 312.99 40.8C312.07 44.77 313.31 48.79 316.57 51.31C319.83 53.83 324.14 54.09 327.68 52.09C334.08 48.47 339.33 43.41 343.55 37.44C346.06 33.89 347.61 29.97 347.99 25.63C348.23 22.88 347.47 19.79 346.09 17.41C344.96 15.46 343.35 14.22 341.92 12.58L343.48 14.6C343.16 14.17 342.91 13.73 342.68 13.24L343.69 15.63C342.88 13.71 342.32 11.63 341.22 9.84998C339.69 7.36998 337.92 5.68998 335.6 3.99998C332.46 1.70998 328.03 0.389976 324.15 0.759976C321.56 0.999976 318.93 1.67998 317.08 3.68998C315.56 5.33998 314.63 7.19998 314.33 9.42998C314.03 11.66 314.32 13.94 315.52 15.81L317.08 17.83C318.33 19.07 319.8 19.93 321.49 20.4L321.7 20.48L317.29 17.91L317.46 18.05L315.9 16.03L316.02 16.21L315.01 13.82C315.08 13.96 315.11 14.11 315.12 14.26L314.76 11.6L314.74 11.83L315.1 9.16998L315.04 9.38998L316.05 6.99998L315.94 7.18998L317.5 5.16998L317.34 5.31998L319.36 3.75998L319.16 3.85998C317.1 4.82998 315.06 7.65998 314.56 9.83998C314.06 12.02 314.17 14.23 315.06 16.35C316.94 20.81 322.05 23.58 326.86 22.14C327.92 21.82 328.98 21.58 330.08 21.41L327.42 21.77C328.31 21.65 329.19 21.56 330.09 21.62L327.43 21.26C327.71 21.29 327.97 21.35 328.23 21.45L325.84 20.44C326.08 20.53 326.31 20.66 326.51 20.82L324.49 19.26C324.68 19.41 324.85 19.59 324.99 19.78L323.43 17.76C324.76 19.59 325.68 21.81 326.74 23.8C328.73 27.54 333.98 29.71 338.03 28.4C339.68 27.87 341.17 27 342.44 25.83C344.4 24.03 345.2 21.31 345.37 18.76C345.66 14.39 344.29 9.43998 341.12 6.28998C338.87 4.05998 335.6 2.70998 332.42 2.81998C330.32 2.88998 328.52 3.65998 326.5 3.99998L329.16 3.63998C328.12 3.77998 327.12 3.78998 326.08 3.67998L328.74 4.03998C328.15 3.94998 327.58 3.82998 327.01 3.67998C324.51 2.98998 321.55 3.37998 319.3 4.68998C317.23 5.89998 315.25 8.27998 314.7 10.67C313.5 15.95 316.29 21.49 321.68 22.97L321.7 22.89Z" fill="black"/>
<path d="M315.42 55.6599C316.97 49.6999 318.94 43.8699 321.32 38.1999L320.31 40.5899C321.33 38.1799 322.42 35.8099 323.58 33.4699C324.74 31.1299 325.42 28.3399 324.59 25.7599C323.91 23.6499 322.77 21.9299 321.01 20.5699C317.12 17.5699 311.41 17.7899 307.88 21.3499C301.87 27.4099 298 34.9399 295.16 42.9099C292.68 49.8499 291.26 57.0899 289.42 64.1999C288.31 68.4799 287.03 72.7199 285.32 76.7999L286.33 74.4099C285.8 75.6499 285.23 76.8699 284.61 78.0699L303.24 83.1199C303.26 82.5299 303.31 81.9399 303.38 81.3499L303.02 84.0099C303.34 81.7899 304.04 79.6899 304.89 77.6199L303.88 80.0099C305.83 75.4299 308.16 70.9899 310.44 66.5699C312.55 62.4899 314.51 58.1099 317.25 54.4099L315.69 56.4299C316.38 55.5399 317.13 54.7199 318.01 53.9999L315.99 55.5599C316.69 55.0299 317.41 54.5999 318.22 54.2599L303.53 42.9699C303.37 43.4599 303.2 43.9399 303 44.4199L304.01 42.0299C303.23 43.8099 302.19 45.4099 301.01 46.9499L302.57 44.9299C299.88 48.3599 296.86 51.4799 294.33 55.0499C291.66 58.8199 289.8 63.0999 288.17 67.3999C285.2 75.2199 283.43 83.5799 281.69 91.7399C280.63 96.6899 279.69 101.67 278.86 106.67L298.5 109.33C298.59 107.67 298.75 106.02 298.97 104.37L298.61 107.03C299.72 99.2099 302.29 91.7199 305.35 84.4599L304.34 86.8499C306 82.9199 307.8 79.0399 309.61 75.1699L291.33 67.4599C286.04 81.0899 282.78 95.1999 280.93 109.68C280.64 111.94 282.24 115.26 283.86 116.75C285.48 118.24 287.37 119.2 289.6 119.5C294.42 120.15 299.3 117.18 300.57 112.34C302.99 103.09 306.07 94.0299 309.78 85.2199L308.77 87.6099C309.5 85.8799 310.26 84.1599 311.04 82.4499C312.18 79.9299 312.81 77.5099 312.05 74.7399C311.41 72.4199 309.62 69.9099 307.45 68.7599C305.13 67.5299 302.32 66.9199 299.74 67.7499C297.4 68.5099 294.83 70.0199 293.76 72.3499C288.01 84.8399 283.72 97.8699 281.43 111.44C280.97 114.16 280.99 116.68 282.44 119.15C283.65 121.22 286.03 123.2 288.42 123.75C290.98 124.33 293.85 124.21 296.13 122.74C298.26 121.37 300.15 119.31 300.73 116.76L307.69 85.8999C308.28 83.2999 308.05 80.5399 306.68 78.1899C305.47 76.1199 303.09 74.1399 300.7 73.5899C295.37 72.3799 289.94 75.1899 288.4 80.5699C282.56 101.02 276.72 121.48 270.87 141.93C269.43 146.96 272.62 153.04 277.85 154.23C283.08 155.42 288.61 152.63 290.15 147.25C295.99 126.8 301.83 106.34 307.68 85.8899L288.39 80.5699C286.07 90.8599 283.75 101.14 281.43 111.43L300.72 116.75C302.6 105.6 305.77 94.7099 310.16 84.2899L309.15 86.6799C309.76 85.2599 310.38 83.8399 311.03 82.4399L293.76 72.3499C288.67 83.5599 284.4 95.1099 281.28 107.02L300.92 109.68C300.98 109.21 301.04 108.75 301.1 108.28L300.74 110.94C302.52 97.8799 305.83 85.0599 310.6 72.7699C311.45 70.5899 310.83 66.9899 309.59 65.0599C308.35 63.1299 306.85 61.8299 304.81 60.9699C302.77 60.1099 300.41 59.7799 298.3 60.4699C295.95 61.2299 293.41 62.7399 292.32 65.0699C289.02 72.1299 285.74 79.2299 283.14 86.5799C280.54 93.9299 278.9 101.55 278.48 109.33C278.35 111.7 279.66 114.8 281.41 116.4C283.06 117.92 284.92 118.85 287.15 119.15C289.38 119.45 291.66 119.16 293.53 117.96C295.59 116.63 297.7 114.5 298.13 111.98C299.36 104.65 300.81 97.3599 302.51 90.1199C304.05 83.5699 305.62 76.9599 308.22 70.7299L307.21 73.1199C308.6 69.8699 310.29 66.7799 312.44 63.9699L310.88 65.9899C312.66 63.7199 314.65 61.6299 316.45 59.3699C319.21 55.8999 321.42 52.5599 322.79 48.2799C323.3 46.6899 323.23 44.5599 322.79 42.9599C322.21 40.8599 320.91 39.0799 319.21 37.7699C317.77 36.6599 316.28 36.0399 314.48 35.7999C313.59 35.5599 312.71 35.5599 311.82 35.7999C310.49 35.8599 309.25 36.2599 308.1 36.9899C303.87 38.7799 300.65 42.8599 298.38 46.7099C296.38 50.0899 294.61 53.6299 292.82 57.1199C291.03 60.6099 289.19 64.2399 287.51 67.8599C285.2 72.8199 283.43 77.5999 283.22 83.1299C283.06 87.3299 286.42 91.8299 290.56 92.7699C292.32 93.1699 294.12 93.1699 295.88 92.7699C298.13 92.2599 300.8 90.2399 301.86 88.1699C305.63 80.7999 307.9 72.9199 309.83 64.9099C311.49 58.0399 313.09 51.1399 315.84 44.5999L314.83 46.9899C316.37 43.3799 318.25 39.9399 320.63 36.8099L319.07 38.8299C319.99 37.6599 320.96 36.5399 322.01 35.4899L306.3 23.3699C302.03 31.9899 298.54 41.0299 296.12 50.3399C295.46 52.8699 295.8 55.7699 297.13 58.0499C298.34 60.1199 300.72 62.0999 303.11 62.6499C308.33 63.8399 314 61.0799 315.41 55.6699L315.42 55.6599Z" fill="black"/>
<path d="M257.43 152.69C257.05 155.3 256.67 157.87 256.86 160.51C257.05 163.15 257.41 165.74 258.14 168.25C259.32 172.32 263.38 175.79 267.78 175.59C272.18 175.39 276.13 172.62 277.42 168.25C279.05 162.75 279.98 157.09 280.5 151.38C280.72 148.96 279.23 145.97 277.57 144.31C275.91 142.65 272.99 141.27 270.5 141.38C268.01 141.49 265.23 142.35 263.43 144.31C261.53 146.38 260.8 148.6 260.5 151.38C260.47 151.67 260.44 151.97 260.39 152.26L260.75 149.6C260.5 151.21 260.07 152.76 259.47 154.28L260.48 151.89C260.07 152.85 259.61 153.76 259.08 154.65L277.71 159.7C278.52 151.43 278.91 143.12 278.89 134.81C278.88 129.82 275.09 125.64 270.22 124.99C265.35 124.34 260.59 127.32 259.25 132.15C257.47 138.57 255.69 144.99 253.91 151.41L273.55 154.07C273.55 145.6 274.12 137.14 275.24 128.75L274.88 131.41C275.3 128.34 275.78 125.29 276.34 122.25C276.83 119.56 276.76 116.98 275.33 114.54C274.12 112.47 271.74 110.49 269.35 109.94C264.2 108.77 258.37 111.49 257.05 116.92C252.66 135.06 252.75 153.8 254.14 172.29C254.52 177.39 254.99 182.48 255.47 187.58C255.72 190.29 256.42 192.67 258.4 194.65C260.13 196.38 262.98 197.69 265.47 197.58C267.96 197.47 270.74 196.61 272.54 194.65C274.34 192.69 275.22 190.35 275.47 187.58C275.87 183.04 276.37 178.52 276.97 174L276.61 176.66C277.63 169.08 278.94 161.55 280.54 154.07L260.9 151.41C260.9 156.26 260.88 161.1 260.88 165.95C260.88 171.08 260.51 176.69 262.46 181.54C263.43 183.94 264.64 186.24 267.06 187.52C269.48 188.8 272.04 189.14 274.77 188.53C278.97 187.58 282.3 183.84 283.21 179.7C283.77 177.14 283.56 174.81 283.52 172.24C283.45 168.22 283.7 164.21 284.22 160.23L283.86 162.89C284.72 156.61 286.3 150.46 288.59 144.55H269.3L269.36 144.98L269 142.32C269.37 145.49 269.14 148.66 268.72 151.81L269.08 149.15C267.95 157.49 266.05 165.79 268.47 174.11C269.87 178.91 274.52 181.93 279.44 181.27C284.07 180.65 288.44 176.43 288.11 171.45C287.63 164.09 287.2 156.69 288.17 149.35L287.81 152.01C288.31 148.46 289.15 144.99 290.46 141.66L270.82 139C270.04 148.81 269.53 158.64 269.3 168.48C269.18 173.71 273.99 178.72 279.3 178.48C284.61 178.24 289.17 174.09 289.3 168.48C289.53 158.64 290.04 148.81 290.82 139C291.01 136.67 289.59 133.49 287.89 131.93C286.19 130.37 284.38 129.48 282.15 129.18C279.92 128.88 277.64 129.17 275.77 130.37L273.75 131.93C272.51 133.18 271.65 134.65 271.18 136.34C266.81 147.43 267.35 159.78 268.11 171.45L287.75 168.79C287.43 167.69 287.2 166.59 287.05 165.46L287.41 168.12C287.04 164.98 287.29 161.85 287.7 158.74L287.34 161.4C287.85 157.7 288.49 154.01 288.9 150.3C289.31 146.59 289.09 143.01 288.58 139.24L287.57 136.85C286.94 135.68 286.08 134.75 284.99 134.04C283.3 132.74 281.12 131.79 278.93 131.89C277.15 131.97 275.45 132.43 273.88 133.26C271.5 134.52 270.21 136.85 269.28 139.24C267.08 144.93 265.51 150.85 264.65 156.89C264.12 160.61 263.67 164.32 263.53 168.08C263.47 169.62 263.47 171.17 263.5 172.71C263.53 174.04 263.7 175.4 263.58 176.73L263.94 174.07C263.88 174.48 263.79 174.86 263.64 175.25L264.65 172.86C264.58 173.03 264.48 173.19 264.36 173.33L265.92 171.31L265.74 171.5L267.76 169.94C267.62 170.06 267.47 170.14 267.3 170.2L269.69 169.19L269.41 169.25L281.71 176.23C281.21 174.98 280.9 173.7 280.71 172.37L281.07 175.03C280.61 171.22 280.84 167.32 280.85 163.49C280.85 159.47 280.86 155.44 280.87 151.42C280.87 146.43 277.06 142.25 272.2 141.6C267.34 140.95 262.27 143.88 261.23 148.76C258.5 161.56 256.59 174.55 255.44 187.58H275.44C273.7 168.88 271.99 149.98 274.47 131.27L274.11 133.93C274.65 130 275.37 126.09 276.3 122.23L257.01 116.91C254.76 129.16 253.51 141.6 253.5 154.06C253.5 159.05 257.31 163.23 262.17 163.88C267.03 164.53 271.8 161.55 273.14 156.72C274.92 150.3 276.7 143.88 278.48 137.46L258.84 134.8C258.86 143.11 258.46 151.41 257.66 159.69L258.02 162.35C258.33 163.65 258.93 164.78 259.81 165.75C261.09 167.4 262.91 168.86 265 169.33C269.36 170.32 273.95 168.67 276.29 164.73C278.78 160.54 279.92 156.15 280.44 151.36H260.44C260.34 152.45 260.22 153.53 260.08 154.61L260.44 151.95C259.93 155.66 259.14 159.32 258.08 162.91H277.37C277.03 161.75 276.78 160.59 276.6 159.39L276.96 162.05C276.69 159.95 276.69 157.87 276.96 155.77L276.6 158.43L276.66 157.98C277.06 155.21 277.13 152.79 275.65 150.27C274.44 148.2 272.06 146.22 269.67 145.67C267.11 145.09 264.24 145.21 261.96 146.68C259.93 147.99 257.73 150.15 257.36 152.66L257.43 152.69Z" fill="black"/>
<path d="M280.9 110.77C279.81 119.52 278.68 128.27 277.64 137.02C276.6 145.77 275.74 154.33 275.68 163.03C275.65 168.02 275.9 173.01 276.51 177.96L296.15 175.3C296.08 174.83 296.01 174.36 295.95 173.88L296.31 176.54C295.32 169.11 295.32 161.6 296.28 154.17L295.92 156.83C296.3 153.99 296.82 151.17 297.48 148.38L277.84 145.72C277.63 161.27 277.43 176.83 278.63 192.35L298.27 189.69C297.21 182.04 293.11 174.63 287.59 169.29C284.52 166.31 279.22 165.31 275.47 167.73C274.02 168.66 272.81 169.87 271.88 171.32C270.39 173.64 270.41 176.44 270.87 179.03C270.92 179.28 270.96 179.54 271 179.8L270.64 177.14C270.82 178.56 270.83 179.97 270.66 181.4L271.02 178.74C270.81 180.29 270.41 181.78 269.81 183.23L270.82 180.84C270.24 182.15 269.53 183.37 268.67 184.51L270.23 182.49C269.99 182.79 269.74 183.09 269.48 183.38L273.89 180.81C268.22 182.72 262.66 185.05 257.33 187.77L271.01 201.45L271.24 201.15L269.68 203.17C271.16 201.27 272.71 199.43 274.62 197.96L272.6 199.52C273.39 198.94 274.2 198.45 275.1 198.06L272.71 199.07C273.39 198.81 274.06 198.62 274.78 198.5L272.12 198.86C273 198.76 273.84 198.79 274.72 198.9L272.06 198.54C274.92 199.02 277.74 199.93 280.55 200.67C283.04 201.33 285.55 201.92 287.93 202.92L285.54 201.91C286.66 202.41 287.71 202.99 288.69 203.72L286.67 202.16C286.88 202.33 287.09 202.5 287.29 202.68C289.32 204.44 291.61 205.61 294.36 205.61C296.81 205.61 299.74 204.52 301.43 202.68C305.15 198.63 305.31 192.56 301.43 188.54C297.19 184.15 291.79 180.98 285.96 179.24C280.95 177.74 274.84 181.04 273.66 186.22C272.48 191.4 275.28 196.92 280.64 198.52C281.56 198.79 282.45 199.11 283.34 199.48L280.95 198.47C282.96 199.34 284.84 200.44 286.58 201.77L284.56 200.21C285.53 200.97 286.43 201.79 287.29 202.68L301.43 188.54C297.83 185.42 293.73 183.52 289.16 182.26C285.57 181.27 281.95 180.19 278.3 179.43C273.06 178.34 267.64 178.78 263.09 181.83C259.21 184.43 256.55 187.7 253.74 191.35L252.73 193.74C252.31 195.07 252.25 196.4 252.55 197.73C252.83 199.83 253.69 202 255.3 203.47C258.72 206.61 263.3 207.13 267.42 205.03C269.64 203.9 271.89 202.85 274.18 201.88L271.79 202.89C274.09 201.93 276.42 201.07 278.76 200.24C280.74 199.54 282.43 198.85 283.87 197.23C284.6 196.41 285.3 195.44 285.93 194.61C286.56 193.78 287.12 192.92 287.59 191.99C288.8 189.62 289.82 187.08 290.24 184.44C290.86 180.62 290.82 177.54 290.14 173.71C284.57 176.95 279 180.2 273.43 183.44C274.41 184.38 275.31 185.39 276.14 186.46L274.58 184.44C275.98 186.28 277.13 188.27 278.05 190.39L277.04 188C277.98 190.26 278.63 192.6 278.96 195.03C279.26 197.23 281.66 200.01 283.56 201.01C285.58 202.08 287.66 202.5 289.94 202.2C294.53 201.58 299 197.35 298.61 192.38C297.4 176.87 297.6 161.3 297.82 145.75C297.89 140.77 293.96 136.58 289.15 135.93C284.34 135.28 279.32 138.22 278.18 143.09C276.74 149.21 275.86 155.52 275.61 161.8C275.36 168.08 275.92 174.38 276.86 180.64C277.19 182.85 279.54 185.6 281.46 186.62C283.48 187.69 285.56 188.11 287.84 187.81C289.94 187.53 292.11 186.67 293.58 185.06C295.25 183.25 296.83 180.55 296.51 177.99C294.35 160.57 296.88 143.07 299.03 125.78L300.9 110.79C301.19 108.43 299.57 105.32 297.97 103.72C296.24 101.99 293.39 100.68 290.9 100.79C288.41 100.9 285.63 101.76 283.83 103.72L282.27 105.74C281.37 107.3 280.91 108.98 280.9 110.79V110.77Z" fill="black"/>
</g>
<mask id="path-15-outside-1_35_257" maskUnits="userSpaceOnUse" x="2" y="635" width="97" height="119" fill="black">
<rect fill="white" x="2" y="635" width="97" height="119"/>
<path d="M92.2852 742.898C83.3496 746.121 73.999 747.732 64.2334 747.732C26.7822 747.732 8.05664 729.544 8.05664 693.167C8.05664 658.743 26.3672 641.531 62.9883 641.531C72.998 641.531 82.7637 642.996 92.2852 645.926V652.518C82.7637 649.588 73.4863 648.123 64.4531 648.123C31.9824 648.123 15.7471 663.138 15.7471 693.167C15.7471 725.149 31.5186 741.141 63.0615 741.141C69.5068 741.141 76.6846 740.066 84.5947 737.918V699.393H92.2852V742.898Z"/>
</mask>
<path d="M92.2852 742.898C83.3496 746.121 73.999 747.732 64.2334 747.732C26.7822 747.732 8.05664 729.544 8.05664 693.167C8.05664 658.743 26.3672 641.531 62.9883 641.531C72.998 641.531 82.7637 642.996 92.2852 645.926V652.518C82.7637 649.588 73.4863 648.123 64.4531 648.123C31.9824 648.123 15.7471 663.138 15.7471 693.167C15.7471 725.149 31.5186 741.141 63.0615 741.141C69.5068 741.141 76.6846 740.066 84.5947 737.918V699.393H92.2852V742.898Z" fill="black"/>
<path d="M92.2852 742.898L94.3207 748.543L98.2852 747.113V742.898H92.2852ZM92.2852 645.926H98.2852V641.494L94.0497 640.191L92.2852 645.926ZM92.2852 652.518L90.5206 658.252L98.2852 660.641V652.518H92.2852ZM84.5947 737.918L86.1674 743.708L90.5947 742.506V737.918H84.5947ZM84.5947 699.393V693.393H78.5947V699.393H84.5947ZM92.2852 699.393H98.2852V693.393H92.2852V699.393ZM90.2496 737.254C81.9852 740.235 73.3248 741.732 64.2334 741.732V753.732C74.6732 753.732 84.714 752.007 94.3207 748.543L90.2496 737.254ZM64.2334 741.732C46.3896 741.732 34.1168 737.398 26.2813 729.787C18.4782 722.208 14.0566 710.386 14.0566 693.167H2.05664C2.05664 712.325 6.99788 727.786 17.9204 738.395C28.8104 748.973 44.626 753.732 64.2334 753.732V741.732ZM14.0566 693.167C14.0566 676.978 18.3444 665.913 25.899 658.812C33.5234 651.645 45.5133 647.531 62.9883 647.531V635.531C43.8421 635.531 28.3662 640.023 17.6801 650.068C6.92417 660.179 2.05664 674.932 2.05664 693.167H14.0566ZM62.9883 647.531C72.4029 647.531 81.5736 648.908 90.5206 651.66L94.0497 640.191C83.9538 637.085 73.5932 635.531 62.9883 635.531V647.531ZM86.2852 645.926V652.518H98.2852V645.926H86.2852ZM94.0497 646.783C84.0148 643.695 74.1425 642.123 64.4531 642.123V654.123C72.8302 654.123 81.5126 655.481 90.5206 658.252L94.0497 646.783ZM64.4531 642.123C47.4043 642.123 33.4993 646.055 23.8498 654.979C14.1117 663.985 9.74707 677.102 9.74707 693.167H21.7471C21.7471 679.203 25.5001 669.798 31.9974 663.789C38.5833 657.698 49.0313 654.123 64.4531 654.123V642.123ZM9.74707 693.167C9.74707 710.062 13.9142 723.84 23.3038 733.36C32.7085 742.896 46.344 747.141 63.0615 747.141V735.141C48.2361 735.141 38.2144 731.39 31.8476 724.934C25.4657 718.463 21.7471 708.254 21.7471 693.167H9.74707ZM63.0615 747.141C70.1591 747.141 77.8763 745.96 86.1674 743.708L83.0221 732.128C75.4929 734.173 68.8546 735.141 63.0615 735.141V747.141ZM90.5947 737.918V699.393H78.5947V737.918H90.5947ZM84.5947 705.393H92.2852V693.393H84.5947V705.393ZM86.2852 699.393V742.898H98.2852V699.393H86.2852Z" fill="black" mask="url(#path-15-outside-1_35_257)"/>
<mask id="path-17-outside-2_35_257" maskUnits="userSpaceOnUse" x="109" y="636" width="83" height="117" fill="black">
<rect fill="white" x="109" y="636" width="83" height="117"/>
<path d="M184.493 642.264V648.855H123.409V690.604H182.003V697.195H123.409V740.408H185.519V747H115.719V642.264H184.493Z"/>
</mask>
<path d="M184.493 642.264V648.855H123.409V690.604H182.003V697.195H123.409V740.408H185.519V747H115.719V642.264H184.493Z" fill="black"/>
<path d="M184.493 642.264H190.493V636.264H184.493V642.264ZM184.493 648.855V654.855H190.493V648.855H184.493ZM123.409 648.855V642.855H117.409V648.855H123.409ZM123.409 690.604H117.409V696.604H123.409V690.604ZM182.003 690.604H188.003V684.604H182.003V690.604ZM182.003 697.195V703.195H188.003V697.195H182.003ZM123.409 697.195V691.195H117.409V697.195H123.409ZM123.409 740.408H117.409V746.408H123.409V740.408ZM185.519 740.408H191.519V734.408H185.519V740.408ZM185.519 747V753H191.519V747H185.519ZM115.719 747H109.719V753H115.719V747ZM115.719 642.264V636.264H109.719V642.264H115.719ZM178.493 642.264V648.855H190.493V642.264H178.493ZM184.493 642.855H123.409V654.855H184.493V642.855ZM117.409 648.855V690.604H129.409V648.855H117.409ZM123.409 696.604H182.003V684.604H123.409V696.604ZM176.003 690.604V697.195H188.003V690.604H176.003ZM182.003 691.195H123.409V703.195H182.003V691.195ZM117.409 697.195V740.408H129.409V697.195H117.409ZM123.409 746.408H185.519V734.408H123.409V746.408ZM179.519 740.408V747H191.519V740.408H179.519ZM185.519 741H115.719V753H185.519V741ZM121.719 747V642.264H109.719V747H121.719ZM115.719 648.264H184.493V636.264H115.719V648.264Z" fill="black" mask="url(#path-17-outside-2_35_257)"/>
<mask id="path-19-outside-3_35_257" maskUnits="userSpaceOnUse" x="195" y="635" width="92" height="119" fill="black">
<rect fill="white" x="195" y="635" width="92" height="119"/>
<path d="M203.986 743.338V735.281C214.973 739.188 227.082 741.141 240.314 741.141C262.238 741.141 273.2 732.84 273.2 716.238C273.2 704.031 266.071 697.928 251.813 697.928H230.28C210.798 697.928 201.057 689.139 201.057 671.561C201.057 651.541 215.339 641.531 243.903 641.531C255.622 641.531 266.975 642.996 277.961 645.926V653.25C266.975 649.832 255.622 648.123 243.903 648.123C220.466 648.123 208.747 655.936 208.747 671.561C208.747 684.256 215.925 690.604 230.28 690.604H251.813C271.198 690.604 280.891 699.148 280.891 716.238C280.891 737.234 267.365 747.732 240.314 747.732C227.082 747.732 214.973 746.268 203.986 743.338Z"/>
</mask>
<path d="M203.986 743.338V735.281C214.973 739.188 227.082 741.141 240.314 741.141C262.238 741.141 273.2 732.84 273.2 716.238C273.2 704.031 266.071 697.928 251.813 697.928H230.28C210.798 697.928 201.057 689.139 201.057 671.561C201.057 651.541 215.339 641.531 243.903 641.531C255.622 641.531 266.975 642.996 277.961 645.926V653.25C266.975 649.832 255.622 648.123 243.903 648.123C220.466 648.123 208.747 655.936 208.747 671.561C208.747 684.256 215.925 690.604 230.28 690.604H251.813C271.198 690.604 280.891 699.148 280.891 716.238C280.891 737.234 267.365 747.732 240.314 747.732C227.082 747.732 214.973 746.268 203.986 743.338Z" fill="black"/>
<path d="M203.986 743.338H197.986V747.948L202.44 749.135L203.986 743.338ZM203.986 735.281L205.996 729.628L197.986 726.78V735.281H203.986ZM277.961 645.926H283.961V641.316L279.507 640.128L277.961 645.926ZM277.961 653.25L276.179 658.979L283.961 661.4V653.25H277.961ZM209.986 743.338V735.281H197.986V743.338H209.986ZM201.976 740.935C213.689 745.099 226.488 747.141 240.314 747.141V735.141C227.676 735.141 216.257 733.276 205.996 729.628L201.976 740.935ZM240.314 747.141C251.862 747.141 261.62 744.984 268.601 739.698C275.896 734.174 279.2 725.982 279.2 716.238H267.2C267.2 723.097 265.023 727.355 261.357 730.132C257.375 733.146 250.69 735.141 240.314 735.141V747.141ZM279.2 716.238C279.2 708.945 277.027 702.461 271.756 697.948C266.663 693.587 259.659 691.928 251.813 691.928V703.928C258.226 703.928 261.915 705.32 263.951 707.063C265.809 708.653 267.2 711.324 267.2 716.238H279.2ZM251.813 691.928H230.28V703.928H251.813V691.928ZM230.28 691.928C221.32 691.928 215.72 689.893 212.382 686.881C209.161 683.975 207.057 679.256 207.057 671.561H195.057C195.057 681.443 197.823 689.908 204.343 695.791C210.746 701.568 219.758 703.928 230.28 703.928V691.928ZM207.057 671.561C207.057 663.174 209.928 657.655 215.212 653.952C220.884 649.976 230.138 647.531 243.903 647.531V635.531C229.104 635.531 216.934 638.091 208.325 644.125C199.326 650.432 195.057 659.928 195.057 671.561H207.057ZM243.903 647.531C255.116 647.531 265.948 648.932 276.415 651.723L279.507 640.128C268.001 637.06 256.128 635.531 243.903 635.531V647.531ZM271.961 645.926V653.25H283.961V645.926H271.961ZM279.743 647.521C268.169 643.92 256.215 642.123 243.903 642.123V654.123C255.029 654.123 265.78 655.744 276.179 658.979L279.743 647.521ZM243.903 642.123C231.707 642.123 221.511 644.121 214.208 648.99C206.475 654.145 202.747 662 202.747 671.561H214.747C214.747 665.496 216.878 661.632 220.864 658.975C225.28 656.031 232.662 654.123 243.903 654.123V642.123ZM202.747 671.561C202.747 679.037 204.895 685.685 210.156 690.337C215.276 694.865 222.347 696.604 230.28 696.604V684.604C223.858 684.604 220.163 683.168 218.105 681.348C216.188 679.653 214.747 676.779 214.747 671.561H202.747ZM230.28 696.604H251.813V684.604H230.28V696.604ZM251.813 696.604C260.754 696.604 266.339 698.59 269.653 701.513C272.824 704.308 274.891 708.828 274.891 716.238H286.891C286.891 706.559 284.111 698.261 277.589 692.512C271.212 686.889 262.258 684.604 251.813 684.604V696.604ZM274.891 716.238C274.891 725.348 272.034 731.264 267.068 735.119C261.813 739.198 253.23 741.732 240.314 741.732V753.732C254.45 753.732 266.155 751.018 274.425 744.599C282.985 737.955 286.891 728.125 286.891 716.238H274.891ZM240.314 741.732C227.521 741.732 215.94 740.316 205.532 737.54L202.44 749.135C214.005 752.219 226.643 753.732 240.314 753.732V741.732Z" fill="black" mask="url(#path-19-outside-3_35_257)"/>
<mask id="path-21-outside-4_35_257" maskUnits="userSpaceOnUse" x="291" y="636" width="92" height="117" fill="black">
<rect fill="white" x="291" y="636" width="92" height="117"/>
<path d="M376.468 642.264V648.855H340.579V747H332.889V648.855H297.732V642.264H376.468Z"/>
</mask>
<path d="M376.468 642.264V648.855H340.579V747H332.889V648.855H297.732V642.264H376.468Z" fill="black"/>
<path d="M376.468 642.264H382.468V636.264H376.468V642.264ZM376.468 648.855V654.855H382.468V648.855H376.468ZM340.579 648.855V642.855H334.579V648.855H340.579ZM340.579 747V753H346.579V747H340.579ZM332.889 747H326.889V753H332.889V747ZM332.889 648.855H338.889V642.855H332.889V648.855ZM297.732 648.855H291.732V654.855H297.732V648.855ZM297.732 642.264V636.264H291.732V642.264H297.732ZM370.468 642.264V648.855H382.468V642.264H370.468ZM376.468 642.855H340.579V654.855H376.468V642.855ZM334.579 648.855V747H346.579V648.855H334.579ZM340.579 741H332.889V753H340.579V741ZM338.889 747V648.855H326.889V747H338.889ZM332.889 642.855H297.732V654.855H332.889V642.855ZM303.732 648.855V642.264H291.732V648.855H303.732ZM297.732 648.264H376.468V636.264H297.732V648.264Z" fill="black" mask="url(#path-21-outside-4_35_257)"/>
<mask id="path-23-outside-5_35_257" maskUnits="userSpaceOnUse" x="391" y="636" width="97" height="118" fill="black">
<rect fill="white" x="391" y="636" width="97" height="118"/>
<path d="M397.719 706.57V642.264H405.409V706.57C405.409 729.617 416.884 741.141 439.833 741.141C462.782 741.141 474.257 729.617 474.257 706.57V642.264H481.947V706.57C481.947 734.012 467.909 747.732 439.833 747.732C411.757 747.732 397.719 734.012 397.719 706.57Z"/>
</mask>
<path d="M397.719 706.57V642.264H405.409V706.57C405.409 729.617 416.884 741.141 439.833 741.141C462.782 741.141 474.257 729.617 474.257 706.57V642.264H481.947V706.57C481.947 734.012 467.909 747.732 439.833 747.732C411.757 747.732 397.719 734.012 397.719 706.57Z" fill="black"/>
<path d="M397.719 642.264V636.264H391.719V642.264H397.719ZM405.409 642.264H411.409V636.264H405.409V642.264ZM474.257 642.264V636.264H468.257V642.264H474.257ZM481.947 642.264H487.947V636.264H481.947V642.264ZM403.719 706.57V642.264H391.719V706.57H403.719ZM397.719 648.264H405.409V636.264H397.719V648.264ZM399.409 642.264V706.57H411.409V642.264H399.409ZM399.409 706.57C399.409 719.012 402.51 729.447 409.763 736.732C417.022 744.021 427.427 747.141 439.833 747.141V735.141C429.29 735.141 422.483 732.499 418.267 728.264C414.046 724.026 411.409 717.175 411.409 706.57H399.409ZM439.833 747.141C452.239 747.141 462.644 744.021 469.903 736.732C477.156 729.447 480.257 719.012 480.257 706.57H468.257C468.257 717.175 465.62 724.026 461.399 728.264C457.183 732.499 450.376 735.141 439.833 735.141V747.141ZM480.257 706.57V642.264H468.257V706.57H480.257ZM474.257 648.264H481.947V636.264H474.257V648.264ZM475.947 642.264V706.57H487.947V642.264H475.947ZM475.947 706.57C475.947 719.331 472.692 727.807 467.225 733.151C461.732 738.52 452.98 741.732 439.833 741.732V753.732C454.762 753.732 467.067 750.085 475.613 741.733C484.183 733.356 487.947 721.251 487.947 706.57H475.947ZM439.833 741.732C426.686 741.732 417.934 738.52 412.441 733.151C406.974 727.807 403.719 719.331 403.719 706.57H391.719C391.719 721.251 395.483 733.356 404.053 741.733C412.599 750.085 424.904 753.732 439.833 753.732V741.732Z" fill="black" mask="url(#path-23-outside-5_35_257)"/>
<mask id="path-25-outside-6_35_257" maskUnits="userSpaceOnUse" x="495" y="636" width="95" height="117" fill="black">
<rect fill="white" x="495" y="636" width="95" height="117"/>
<path d="M501.719 747V642.264H544.932C563.877 642.264 573.35 650.638 573.35 667.386C573.35 681.888 563.071 692.166 542.515 698.221L577.891 747H567.344L532.554 698.44V693.24C554.038 690.066 564.78 681.644 564.78 667.972C564.78 655.374 557.749 649.075 543.687 649.075H509.409V747H501.719Z"/>
</mask>
<path d="M501.719 747V642.264H544.932C563.877 642.264 573.35 650.638 573.35 667.386C573.35 681.888 563.071 692.166 542.515 698.221L577.891 747H567.344L532.554 698.44V693.24C554.038 690.066 564.78 681.644 564.78 667.972C564.78 655.374 557.749 649.075 543.687 649.075H509.409V747H501.719Z" fill="black"/>
<path d="M501.719 747H495.719V753H501.719V747ZM501.719 642.264V636.264H495.719V642.264H501.719ZM542.515 698.221L540.819 692.465L532.67 694.866L537.658 701.743L542.515 698.221ZM577.891 747V753H589.654L582.748 743.477L577.891 747ZM567.344 747L562.466 750.494L564.261 753H567.344V747ZM532.554 698.44H526.554V700.368L527.676 701.935L532.554 698.44ZM532.554 693.24L531.677 687.305L526.554 688.061V693.24H532.554ZM509.409 649.075V643.075H503.409V649.075H509.409ZM509.409 747V753H515.409V747H509.409ZM507.719 747V642.264H495.719V747H507.719ZM501.719 648.264H544.932V636.264H501.719V648.264ZM544.932 648.264C553.649 648.264 559.066 650.206 562.271 653.039C565.335 655.748 567.35 660.142 567.35 667.386H579.35C579.35 657.882 576.628 649.714 570.219 644.049C563.951 638.508 555.16 636.264 544.932 636.264V648.264ZM567.35 667.386C567.35 673.041 565.415 677.711 561.398 681.728C557.226 685.901 550.559 689.597 540.819 692.465L544.21 703.976C555.027 700.79 563.778 696.32 569.884 690.214C576.145 683.952 579.35 676.232 579.35 667.386H567.35ZM537.658 701.743L573.033 750.523L582.748 743.477L547.372 694.698L537.658 701.743ZM577.891 741H567.344V753H577.891V741ZM572.221 743.506L537.431 694.946L527.676 701.935L562.466 750.494L572.221 743.506ZM538.554 698.44V693.24H526.554V698.44H538.554ZM533.431 699.176C544.654 697.518 553.886 694.392 560.426 689.264C567.25 683.913 570.78 676.648 570.78 667.972H558.78C558.78 672.968 556.939 676.749 553.021 679.821C548.819 683.116 541.938 685.789 531.677 687.305L533.431 699.176ZM570.78 667.972C570.78 660.567 568.684 653.965 563.51 649.33C558.463 644.809 551.49 643.075 543.687 643.075V655.075C549.946 655.075 553.52 656.491 555.503 658.268C557.361 659.933 558.78 662.779 558.78 667.972H570.78ZM543.687 643.075H509.409V655.075H543.687V643.075ZM503.409 649.075V747H515.409V649.075H503.409ZM509.409 741H501.719V753H509.409V741Z" fill="black" mask="url(#path-25-outside-6_35_257)"/>
<mask id="path-27-outside-7_35_257" maskUnits="userSpaceOnUse" x="581" y="635" width="117" height="119" fill="black">
<rect fill="white" x="581" y="635" width="117" height="119"/>
<path d="M595.479 694.339C595.479 725.54 610.201 741.141 639.645 741.141C668.551 741.141 683.004 725.54 683.004 694.339C683.004 663.528 668.551 648.123 639.645 648.123C610.201 648.123 595.479 663.528 595.479 694.339ZM587.057 694.778C587.057 659.28 604.586 641.531 639.645 641.531C674.166 641.531 691.427 659.28 691.427 694.778C691.427 730.081 674.166 747.732 639.645 747.732C604.586 747.732 587.057 730.081 587.057 694.778Z"/>
</mask>
<path d="M595.479 694.339C595.479 725.54 610.201 741.141 639.645 741.141C668.551 741.141 683.004 725.54 683.004 694.339C683.004 663.528 668.551 648.123 639.645 648.123C610.201 648.123 595.479 663.528 595.479 694.339ZM587.057 694.778C587.057 659.28 604.586 641.531 639.645 641.531C674.166 641.531 691.427 659.28 691.427 694.778C691.427 730.081 674.166 747.732 639.645 747.732C604.586 747.732 587.057 730.081 587.057 694.778Z" fill="black"/>
<path d="M589.479 694.339C589.479 710.78 593.352 724.227 602.157 733.558C611.024 742.954 623.906 747.141 639.645 747.141V735.141C625.939 735.141 616.739 731.527 610.885 725.322C604.968 719.053 601.479 709.099 601.479 694.339H589.479ZM639.645 747.141C655.145 747.141 667.84 742.936 676.565 733.518C685.211 724.186 689.004 710.755 689.004 694.339H677.004C677.004 709.124 673.57 719.094 667.763 725.363C662.035 731.545 653.05 735.141 639.645 735.141V747.141ZM689.004 694.339C689.004 678.101 685.203 664.805 676.54 655.572C667.809 646.266 655.124 642.123 639.645 642.123V654.123C653.071 654.123 662.066 657.683 667.788 663.782C673.579 669.954 677.004 679.767 677.004 694.339H689.004ZM639.645 642.123C623.927 642.123 611.054 646.249 602.183 655.532C593.361 664.764 589.479 678.075 589.479 694.339H601.479C601.479 679.792 604.959 669.996 610.859 663.822C616.709 657.7 625.919 654.123 639.645 654.123V642.123ZM593.057 694.778C593.057 677.935 597.214 666.409 604.473 659.059C611.718 651.723 623.059 647.531 639.645 647.531V635.531C621.171 635.531 606.219 640.214 595.935 650.627C585.664 661.026 581.057 676.123 581.057 694.778H593.057ZM639.645 647.531C655.937 647.531 667.065 651.71 674.18 659.026C681.325 666.373 685.427 677.913 685.427 694.778H697.427C697.427 676.146 692.898 661.062 682.783 650.66C672.637 640.227 657.873 635.531 639.645 635.531V647.531ZM685.427 694.778C685.427 711.538 681.329 723 674.191 730.299C667.078 737.574 655.946 741.732 639.645 741.732V753.732C657.865 753.732 672.624 749.066 682.771 738.689C692.894 728.337 697.427 713.321 697.427 694.778H685.427ZM639.645 741.732C623.051 741.732 611.705 737.561 604.461 730.266C597.209 722.964 593.057 711.515 593.057 694.778H581.057C581.057 713.344 585.669 728.373 595.946 738.722C606.231 749.079 621.18 753.732 639.645 753.732V741.732Z" fill="black" mask="url(#path-27-outside-7_35_257)"/>
<defs>
<clipPath id="clip0_35_257">
<rect width="435.6" height="595.13" fill="white" transform="translate(123)"/>
</clipPath>
</defs>
</svg>
